<svg version="1.1" id="Layer_1" xmlns="http://www.w3.org/2000/svg" xmlns:xlink="http://www.w3.org/1999/xlink" x="0px" y="0px"
	 width="100%" viewBox="0 0 1024 1024" enable-background="new 0 0 1024 1024" xml:space="preserve">
<path fill="#000000" opacity="1.000000" stroke="none" 
	d="
M619.000000,697.309814 
	C500.527710,697.310364 382.555450,697.316650 264.583160,697.308594 
	C243.038300,697.307129 226.848923,685.193848 220.852356,664.708984 
	C219.999588,661.795837 219.715286,658.848816 219.715775,655.827820 
	C219.732498,551.353088 219.695953,446.878296 219.757568,342.403595 
	C219.772003,317.923462 240.233856,297.671326 264.788544,297.668274 
	C430.249664,297.647797 595.710754,297.658691 761.171875,297.671844 
	C785.756348,297.673798 806.181580,317.801819 806.235352,342.402649 
	C806.352295,395.889862 806.287842,449.377441 806.290283,502.864868 
	C806.292542,553.186340 806.310974,603.507874 806.271545,653.829346 
	C806.252380,678.316223 787.393005,697.283447 762.962036,697.310974 
	C715.141418,697.364868 667.320679,697.316650 619.000000,697.309814 
M261.337250,441.499817 
	C261.335388,465.327850 261.331085,489.155914 261.332123,512.983948 
	C261.334076,558.474365 261.331116,603.964844 261.351929,649.455261 
	C261.354889,655.944458 263.358765,658.283203 268.789551,658.210571 
	C297.411713,657.827881 326.035217,658.370117 354.657623,658.325256 
	C376.294159,658.291382 397.953339,658.512939 419.598602,658.538269 
	C531.400818,658.669128 643.203247,658.591248 755.005554,658.580627 
	C762.475220,658.579895 764.633301,656.504333 764.634277,649.194458 
	C764.647766,548.215637 764.650818,447.236786 764.641235,346.257935 
	C764.640442,337.776855 763.222778,336.384460 754.789795,336.384827 
	C593.490479,336.391846 432.191101,336.403839 270.891754,336.418488 
	C262.766968,336.419250 261.316681,337.874207 261.316864,346.019623 
	C261.317535,377.513031 261.328461,409.006409 261.337250,441.499817 
z"/>
<path fill="#000000" opacity="1.000000" stroke="none" 
	d="
M479.000000,769.233276 
	C387.844696,769.248779 297.189392,769.280396 206.534073,769.266846 
	C187.610657,769.264038 172.292099,751.290466 175.599075,733.138428 
	C177.629883,721.991333 186.382553,714.670105 197.691040,714.671997 
	C275.014496,714.684570 352.337982,714.751160 429.661285,714.640503 
	C438.247406,714.628235 445.356476,716.961243 450.677185,723.901001 
	C453.989166,728.220825 458.482635,729.751770 463.821503,729.740906 
	C496.483948,729.674255 529.146729,729.650330 561.809021,729.740051 
	C567.539612,729.755798 572.171997,728.067993 575.779541,723.480530 
	C580.761414,717.145447 587.332642,714.596497 595.448120,714.609741 
	C672.604797,714.735657 749.761658,714.683411 826.918518,714.702332 
	C843.127625,714.706299 853.747375,728.039673 850.221619,743.870911 
	C846.939941,758.605591 833.671326,769.273010 818.457520,769.272949 
	C705.471680,769.272461 592.485840,769.249390 479.000000,769.233276 
z"/>
<path fill="#000000" opacity="1.000000" stroke="none" 
	d="
M413.146149,444.131348 
	C417.571075,440.167419 422.352142,438.369141 428.010010,438.628693 
	C432.993500,438.857300 437.996796,438.609833 442.988922,438.702881 
	C452.876587,438.887146 461.098328,446.916199 461.295715,456.844543 
	C461.487610,466.495392 461.436066,476.154053 461.321320,485.807251 
	C461.195007,496.433441 453.651337,504.444366 442.984039,505.064667 
	C437.178406,505.402252 431.323517,505.360107 425.513641,505.054993 
	C415.301514,504.518738 407.805664,496.627991 407.661957,486.415741 
	C407.530792,477.095734 407.723175,467.771057 407.578857,458.451447 
	C407.494324,452.993225 409.106110,448.319153 413.146149,444.131348 
z"/>
<path fill="#000000" opacity="1.000000" stroke="none" 
	d="
M568.041321,450.539978 
	C571.922974,442.229553 578.216187,438.513092 586.939941,438.674591 
	C591.600464,438.760895 596.264160,438.657043 600.925903,438.700134 
	C612.025208,438.802734 620.001160,446.315887 620.260193,457.323029 
	C620.487305,466.974396 620.494507,476.642517 620.205017,486.291412 
	C619.873718,497.334503 612.027161,504.840302 600.938110,505.105957 
	C595.946167,505.225525 590.944214,505.251038 585.954712,505.084381 
	C574.341370,504.696625 566.560791,496.891174 566.762451,485.245148 
	C566.960693,473.800720 565.397400,462.283051 568.041321,450.539978 
z"/>
<path fill="#000000" opacity="1.000000" stroke="none" 
	d="
M504.825958,538.318604 
	C518.775391,540.467957 531.008972,537.473022 541.908875,529.115540 
	C543.615784,527.806763 545.444641,526.582092 547.379944,525.660095 
	C553.068787,522.950012 559.933167,524.658386 563.520874,529.503723 
	C567.475281,534.844543 567.253845,541.537781 562.368591,546.336792 
	C547.452576,560.989441 530.029053,569.137573 508.511017,567.554504 
	C491.676270,566.315918 477.963318,559.052856 466.122620,547.628418 
	C459.737885,541.468079 459.149200,534.131226 464.205109,528.536072 
	C469.083282,523.137634 476.711853,522.984619 483.514771,528.023682 
	C489.836670,532.706482 496.462372,536.822754 504.825958,538.318604 
z"/>
</svg>